<svg id="Laag_1" data-name="Laag 1" xmlns="http://www.w3.org/2000/svg" viewBox="0 0 290.4 330.81"><defs><style>.cls-1,.cls-2,.cls-3{fill:none;stroke:#b6182a;}.cls-1{stroke-width:4px;}.cls-2{stroke-width:4.74px;}.cls-3{stroke-width:4.74px;}.cls-4{fill:#b6182a;}.cls-5{fill:#fff;}.cls-6{fill:#9bb827;}</style></defs><path class="cls-1" d="M125.14,225.38a80.22,80.22,0,0,0,13.78,23.44M215,118.22a81.22,81.22,0,0,0-28.42-.21m75.06,130.61a80.09,80.09,0,0,0,13.55-23.05m-141.56-1.83a71.6,71.6,0,0,0,11.15,18.82m67.33-116.21a73,73,0,0,0-22.76-.17m66.17,116.5a71.32,71.32,0,0,0,11.17-18.74m-125.37-3.87a63.22,63.22,0,0,0,9.51,16.45m59.82-101.79a63.16,63.16,0,0,0-10.45-.86,64.8,64.8,0,0,0-9.4.69m58.64,102.13a63.22,63.22,0,0,0,9.62-16.57m-109.73-2.94a54.44,54.44,0,0,0,8.56,14.54m51.91-88.51a55.2,55.2,0,0,0-9.6-.84,55.79,55.79,0,0,0-8.53.66m50.4,89.23a54.6,54.6,0,0,0,9.24-15.69M156.84,213a46.34,46.34,0,0,0,8.38,14.2M210.12,152a46.77,46.77,0,0,0-18.56-.27m43.36,75.85a46.16,46.16,0,0,0,8.64-14.5m-79.48-5.18a37.67,37.67,0,0,0,9.47,15.86m37.33-62.79a37.67,37.67,0,0,0-10.68-1.54,38.17,38.17,0,0,0-9,1.08m35.49,63.41a37.57,37.57,0,0,0,9.85-16.8M171.44,202a29.08,29.08,0,0,0,10.81,18.07m30.33-49.44a29.2,29.2,0,0,0-22.81-.82m28.38,50.27a29.21,29.21,0,0,0,11-19.7" transform="translate(-55 -35)"/><path class="cls-2" d="M105.65,299.53c15.78-9.48,21-21.84,25-36,6.41-22.67,42.31-44.85,69.41-44.85,26.38,0,63.31,21.94,70.21,44.47,4.32,14.07,9.78,27,25.77,36.16" transform="translate(-55 -35)"/><path class="cls-3" d="M336.53,229.36c-16.07-9-29.38-7.37-43.66-3.82-22.87,5.68-59.94-14.49-73.39-38-13.08-22.9-12.36-65.85,3.77-83,10.08-10.73,18-21.55,18-40" transform="translate(-55 -35)"/><path class="cls-3" d="M65,229.36c16.07-9,29.38-7.37,43.66-3.82,22.87,5.68,59.94-14.49,73.39-38,13.08-22.9,12.36-65.85-3.77-83-10.08-10.73-18-21.55-18-40" transform="translate(-55 -35)"/><path class="cls-4" d="M200.76,98.62A31.81,31.81,0,1,0,169,66.81a31.81,31.81,0,0,0,31.81,31.81Z" transform="translate(-55 -35)"/><path class="cls-5" d="M170.37,67.69c0-.36,0-.73,0-1.09v0a15.25,15.25,0,0,1,30.45-.76c0,.33,0,.66,0,1s0,.67,0,1a15.26,15.26,0,0,0,30.32,1.06,30.44,30.44,0,0,1-60.75-1.18Z" transform="translate(-55 -35)"/><path class="cls-4" d="M181.87,67.16a3.74,3.74,0,1,1,3.73,3.71,3.73,3.73,0,0,1-3.73-3.71Z" transform="translate(-55 -35)"/><path class="cls-5" d="M211.46,67.16A3.84,3.84,0,1,1,215.3,71a3.82,3.82,0,0,1-3.84-3.81Z" transform="translate(-55 -35)"/><path class="cls-4" d="M287.53,244.59a31.81,31.81,0,1,0,44.3-7.81,31.81,31.81,0,0,0-44.3,7.81Z" transform="translate(-55 -35)"/><path class="cls-5" d="M330.3,237.44l.9.61,0,0a15.25,15.25,0,0,1-16.85,25.38c-.26-.21-.52-.41-.8-.6s-.55-.37-.84-.55a15.26,15.26,0,0,0-18.26,24.23,30.44,30.44,0,0,1,35.82-49.09Z" transform="translate(-55 -35)"/><path class="cls-4" d="M324.14,247.16a3.74,3.74,0,1,1-5.19.93,3.73,3.73,0,0,1,5.19-.93Z" transform="translate(-55 -35)"/><path class="cls-5" d="M307.16,271.41a3.83,3.83,0,1,1-5.32.95,3.82,3.82,0,0,1,5.32-.95Z" transform="translate(-55 -35)"/><path class="cls-4" d="M113.49,245.8a31.81,31.81,0,1,0-9.35,44,31.81,31.81,0,0,0,9.35-44Z" transform="translate(-55 -35)"/><path class="cls-5" d="M104.1,288.13l-.9.61h0A15.25,15.25,0,0,1,86,263.62c.29-.16.58-.33.86-.51s.55-.37.81-.57a15.26,15.26,0,0,0-15.62-26,30.44,30.44,0,0,1,32.1,51.6Z" transform="translate(-55 -35)"/><path class="cls-4" d="M97.39,278.77a3.73,3.73,0,1,1,1.08-5.15,3.72,3.72,0,0,1-1.08,5.15Z" transform="translate(-55 -35)"/><path class="cls-5" d="M81.27,254a3.83,3.83,0,1,1,1.11-5.29A3.81,3.81,0,0,1,81.27,254Z" transform="translate(-55 -35)"/><path class="cls-6" d="M190,107.92" transform="translate(-55 -35)"/><path class="cls-4" d="M100.27,329.91c-1.65-2.05-5.59-3.76-8.53-3.92l-3,2.23c1.77-.18,4.75,1.86,5.85,4.58a17.06,17.06,0,0,1,1.28,6.32A11.83,11.83,0,0,1,94.17,345c-1,1.83-3,3.08-4.55,4.31a14.28,14.28,0,0,0,8.95-3.95,10.71,10.71,0,0,0,4-8.16,11.4,11.4,0,0,0-2.29-7.24Zm-8.75,16.34a4.3,4.3,0,0,1-3.9-2.59,11.12,11.12,0,0,1-1.05-5.09,15,15,0,0,1,1.47-7,32.68,32.68,0,0,1,3.7-5.62,11.53,11.53,0,0,0-8.47,4.1,12.78,12.78,0,0,0-3.44,9.22,10.25,10.25,0,0,0,2.57,7,9.82,9.82,0,0,0,7.5,3l3.46-2.95a7.1,7.1,0,0,1-1.13,0l-.71-.06Z" transform="translate(-55 -35)"/><path class="cls-4" d="M314.48,325.51l-1.05,0c-3.88-.19-9,2.2-13.23,5.22l1.35,1.88a7.12,7.12,0,0,1,2.48-.32,26,26,0,0,1,5.13.6A18.71,18.71,0,0,1,312,342.93a15.91,15.91,0,0,1-1.2,6.61l3.12,1.1a41.44,41.44,0,0,0,2.8-15.18,20.19,20.19,0,0,0-2.25-9.95Zm-14.51,0-3.35,1.15a18.42,18.42,0,0,1,1,6.74,43.21,43.21,0,0,1-2.66,14.71l7,2.53a39.29,39.29,0,0,0,.6-7.8A61.47,61.47,0,0,0,300,325.51Z" transform="translate(-55 -35)"/><path class="cls-4" d="M67.56,320.92A45.9,45.9,0,0,1,65.4,311l-8.71,3.75A31.34,31.34,0,0,0,62,325.14a21.27,21.27,0,0,0,8.89,7.24l1.74-2.89c-2-1.74-3.7-4.6-5-8.57Zm11-9q-.59,10-7.65,19.53A48.55,48.55,0,0,1,55,345.35l5.64,7.89q9.21-5.5,15.08-17.79a63.54,63.54,0,0,0,6.1-22.88l-3.26-.68Z" transform="translate(-55 -35)"/><path class="cls-4" d="M175.75,320.92a45.9,45.9,0,0,1-2.16-9.9l-8.71,3.75a31.5,31.5,0,0,0,5.27,10.37,21.3,21.3,0,0,0,8.9,7.24l1.74-2.89q-3-2.61-5-8.57Zm11-9q-.6,10-7.66,19.53a48.62,48.62,0,0,1-15.9,13.93l5.64,7.89q9.21-5.5,15.08-17.79a64,64,0,0,0,6.1-22.88l-3.26-.68Z" transform="translate(-55 -35)"/><path class="cls-4" d="M176.51,320.92a45.3,45.3,0,0,1-2.15-9.9l-8.71,3.75a31.31,31.31,0,0,0,5.27,10.37,21.27,21.27,0,0,0,8.89,7.24l1.75-2.89q-3-2.61-5.05-8.57Zm11-9q-.6,10-7.66,19.53A48.55,48.55,0,0,1,164,345.35l5.64,7.89q9.22-5.5,15.09-17.79a63.73,63.73,0,0,0,6.09-22.88l-3.25-.68Z" transform="translate(-55 -35)"/><path class="cls-4" d="M254.93,320.92a45.9,45.9,0,0,1-2.16-9.9l-8.71,3.75a31.34,31.34,0,0,0,5.28,10.37,21.27,21.27,0,0,0,8.89,7.24l1.74-2.89c-2-1.74-3.7-4.6-5-8.57Zm11-9q-.58,10-7.65,19.53a48.55,48.55,0,0,1-15.91,13.93l5.64,7.89q9.21-5.5,15.08-17.79a63.54,63.54,0,0,0,6.1-22.88l-3.26-.68Z" transform="translate(-55 -35)"/><path class="cls-4" d="M345.26,320.85h-5.32c0,.34.05.72.05,1.15q0,4.63-2.29,5.32a8.36,8.36,0,0,0,2.43,1.1q5.26,0,5.27-6.05a7.5,7.5,0,0,0-.14-1.52Zm-4.76,7.09a10.94,10.94,0,0,0-6.69-2.43L326.47,328a16.21,16.21,0,0,1,7.16,1.19q4.08,1.78,4.08,5.27a9.87,9.87,0,0,1-.87,4.27c-.77,1.59-5.72,3.85-7.19,3.73v3.39l.78.05c2.6.18,8.71-2.4,10.67-4.7a10.93,10.93,0,0,0,2.8-7.29q0-3.39-3.4-6ZM325.6,336c0-1.84,2.78-6.72,3.73-8.53H329c-2.08-.06-4.43,1-7,4.9a9.62,9.62,0,0,0-1.91,5.78,8.48,8.48,0,0,0,.87,3.85c2.05,3.88,3.5,6.63,8.78,9.95l.12-9.36c-1.13-1-4.18-4.82-4.18-6.59Zm15.73,16.27c-.7-.33-1.42-.81-2.1-1.12-1.83-1.1-3.22-1.72-5.05-2.82a6.23,6.23,0,0,1-2.9-4.33s.62-.68,1.08-.68h-1.94c-.89,1.31-1.78-2-2.66-.67-1.32,2-2,3.35-2,4,0,1.81.68,2.34,3.5,5.07,2.32,1.44,4.95,3.2,7.27,4.61q3.81,2.43,3.81,4.35a5.23,5.23,0,0,1-2.07,3.9h.6a4.29,4.29,0,0,0,3.62-1.88,6.44,6.44,0,0,0,1.38-4c0-3.14-.86-5.27-2.57-6.37Zm-4.06,11.34c-1.45-.46-2.22-.89-4.08-2.81a15.7,15.7,0,0,1-3.53-6.05l-4.5,7.56Q331,365.8,336,365.81a7.52,7.52,0,0,0,5.52-2.13,12,12,0,0,1-2.27.25l-2-.31Z" transform="translate(-55 -35)"/><path class="cls-4" d="M289.76,344.28q-.64-4.95-1.28-9.9c-.8-3.82-2.48-5.88-4.73-7.06l-6,2.52q4,1.79,5.22,7.2l1.47,8.8c.92,2.85,2.93,4.27,6.05,4.27a8.61,8.61,0,0,0,2.89-.55c-1.86-.13-3.07-1.88-3.62-5.28ZM278.16,326a11.22,11.22,0,0,0-4.67,1.22,13.21,13.21,0,0,0-4.56,3.18l3.21,3.67a40.35,40.35,0,0,1,11.71-6.69,9.78,9.78,0,0,0-4.66-1.38Zm6.09,18.2q-2.92,2.34-5.18,2.34a3.59,3.59,0,0,1-2.52-1,3.17,3.17,0,0,1-1.05-2.5c0-1.25.95-2.28,2.75-3.07a11.3,11.3,0,0,1,4.35-.92,5.48,5.48,0,0,1,1.29.14l.09-2.84a13.09,13.09,0,0,0-4.4-.78,13.41,13.41,0,0,0-7,2.24q-4,2.48-4.12,5.69-.09,2.43,2.52,4.49a7.83,7.83,0,0,0,4.9,1.93,23.35,23.35,0,0,0,5-.55,8.17,8.17,0,0,0,4.4-2.07l-1-3.07Z" transform="translate(-55 -35)"/><path class="cls-4" d="M224.06,326,223,326c-3.88-.19-9,2.2-13.22,5.22l1.35,1.88a7.05,7.05,0,0,1,2.47-.32,26.12,26.12,0,0,1,5.14.6,18.79,18.79,0,0,1,2.84,10.08,16.08,16.08,0,0,1-1.19,6.61l3.12,1.1A41.64,41.64,0,0,0,226.3,336a20.3,20.3,0,0,0-2.24-9.95Zm-14.51,0-3.35,1.15a18.67,18.67,0,0,1,1,6.74,43.21,43.21,0,0,1-2.66,14.71l7,2.53a40.21,40.21,0,0,0,.59-7.8A61.45,61.45,0,0,0,209.55,326Z" transform="translate(-55 -35)"/><path class="cls-4" d="M201.39,314.27a2.1,2.1,0,0,0-1.7-.78,2.92,2.92,0,0,0-2.34,1.17,3.93,3.93,0,0,0-1,2.54,2.86,2.86,0,0,0,.64,1.86,2,2,0,0,0,1.7.8,3,3,0,0,0,2.38-1.23,3.87,3.87,0,0,0,.92-2.53,2.83,2.83,0,0,0-.64-1.83ZM197.54,341a32.5,32.5,0,0,1-1.1-8.3,26.14,26.14,0,0,1,.55-5.36l-3.12-.55a73.43,73.43,0,0,0-2,16.45c0,4.56.65,7.89,2,10l6.74-4.54a27.35,27.35,0,0,1-3.07-7.7Z" transform="translate(-55 -35)"/><path class="cls-4" d="M145.25,325.5q-4.4,0-10.36,3.81l.28,3.67a8.18,8.18,0,0,1,4.49-1.38,7.81,7.81,0,0,1,5.36,1.93l3.67-6.74a4.44,4.44,0,0,0-3.44-1.29Zm-10,7.8a19,19,0,0,1,1-6.79l-2.79-1.14a39.47,39.47,0,0,0-2.34,14.12A49.52,49.52,0,0,0,132.32,351l7.34-3.94a23.21,23.21,0,0,1-4.45-13.71Z" transform="translate(-55 -35)"/><path class="cls-4" d="M121.09,325.37a28.51,28.51,0,0,0-2,10.77,34.87,34.87,0,0,0,2.56,13.71l3.08-1.42a31.31,31.31,0,0,1-.69-6.51q0-8.07,3.21-13.48l-6.19-3.07Zm-1.32,17.14-5.92.55q-2.23-3.39-2.24-10.5a43.23,43.23,0,0,1,.27-4.95l-2.52-2a33.36,33.36,0,0,0-2.84,13.71,31.73,31.73,0,0,0,1.7,11q8.7-1.42,12.65-4.49l-1.1-3.4Z" transform="translate(-55 -35)"/></svg>