<svg id="Laag_1" data-name="Laag 1" xmlns="http://www.w3.org/2000/svg" viewBox="0 0 335.96 67.02"><defs><style>.cls-1{fill:#b6182a;}.cls-2{fill:#fff;}.cls-3{fill:#9bb827;}</style></defs><path class="cls-1" d="M46.84,218.58a20.57,20.57,0,0,1-3.55-6l.94-.36a19.4,19.4,0,0,0,3.38,5.75Zm31.62-.05-.77-.65A19.76,19.76,0,0,0,81,212.23l.94.36A20.72,20.72,0,0,1,78.46,218.53ZM76.93,217l-.78-.64a17.42,17.42,0,0,0,2.73-4.58l.93.38A18.4,18.4,0,0,1,76.93,217Zm-28.62,0a18.55,18.55,0,0,1-2.89-4.86l.94-.38a17.5,17.5,0,0,0,2.72,4.6Zm27.09-1.48-.78-.63a15.49,15.49,0,0,0,2.34-4l.94.36A16.39,16.39,0,0,1,75.4,215.52Zm-25.58,0a16.53,16.53,0,0,1-2.46-4.27l.93-.37a15.59,15.59,0,0,0,2.32,4Zm23.72-1.06-.77-.65A13.27,13.27,0,0,0,75,210l.94.36A14.46,14.46,0,0,1,73.54,214.42Zm-21.94-.14a14.21,14.21,0,0,1-2.23-3.79l.94-.38a13.2,13.2,0,0,0,2.07,3.53Zm20.14-1.05-.76-.66a11,11,0,0,0,2.08-3.49l.94.35A11.83,11.83,0,0,1,71.74,213.23Zm-18.28-.07a11.93,11.93,0,0,1-2.2-3.73l.94-.35a11.08,11.08,0,0,0,2,3.42Zm16.18-.82-.7-.72a8.89,8.89,0,0,0,2.34-4l1,.27A9.93,9.93,0,0,1,69.64,212.34Zm-14.07,0a10,10,0,0,1-2.5-4.2l1-.29a9,9,0,0,0,2.26,3.78Zm11.88-.88-.62-.79A6.83,6.83,0,0,0,69.42,206l1,.11A7.88,7.88,0,0,1,67.45,211.42Zm-9.64,0a7.79,7.79,0,0,1-2.91-4.85l1-.17a6.81,6.81,0,0,0,2.54,4.23Zm7.72-12.37a6.89,6.89,0,0,0-2.9-.64,6.77,6.77,0,0,0-2.44.45l-.36-.94a7.83,7.83,0,0,1,6.13.22Zm-.36-2.41a9,9,0,0,0-4.68-.11l-.24-1a10.12,10.12,0,0,1,5.21.12ZM65,194.39a11.21,11.21,0,0,0-4.47-.06l-.19-1a12.28,12.28,0,0,1,4.87.07ZM65,192.2a13.53,13.53,0,0,0-4.4,0l-.15-1a14.38,14.38,0,0,1,4.72.05Zm.21-2.13a15.65,15.65,0,0,0-4.83,0l-.15-1a16.78,16.78,0,0,1,5.15,0Zm.37-2.11a17.58,17.58,0,0,0-5.56,0l-.15-1a18.71,18.71,0,0,1,5.88.05Zm.72-2.05a20.15,20.15,0,0,0-7,0l-.17-1a20.93,20.93,0,0,1,7.32.06Z" transform="translate(-26.12 -164.49)"/><path class="cls-1" d="M39.16,231.52l-.61-1c3.58-2.16,4.92-4.83,6-8.71,1.64-5.8,10.74-11.71,18-11.71a22.33,22.33,0,0,1,11,3.55c3.75,2.33,6.39,5.26,7.24,8.05,1,3.33,2.26,6.5,6.21,8.75l-.59,1c-4.32-2.47-5.71-6-6.76-9.44-1.6-5.23-10.38-10.76-17.08-10.76s-15.39,5.57-16.88,10.84C44.77,225.45,43.49,228.92,39.16,231.52Z" transform="translate(-26.12 -164.49)"/><path class="cls-1" d="M96.62,213.88C93,211.84,90,212,86.07,213c-5.85,1.45-15.49-3.51-19.11-9.84a22.22,22.22,0,0,1-2.36-11.29c.16-4.41,1.39-8.16,3.39-10.29,2.77-2.94,4.37-5.46,4.37-9.64h1.19c0,5.05-2.32,7.93-4.69,10.46-3.74,4-4.19,14.35-.86,20.17s12.47,10.59,17.79,9.27c3.36-.83,7-1.44,11.41,1Z" transform="translate(-26.12 -164.49)"/><path class="cls-1" d="M28.92,213.88l-.58-1c4.4-2.46,8.05-1.85,11.41-1,5.32,1.32,14.46-3.44,17.79-9.27s2.88-16.19-.86-20.17C54.31,179.85,52,177,52,171.92h1.19c0,4.18,1.6,6.7,4.37,9.64,2,2.13,3.23,5.88,3.39,10.29a22.22,22.22,0,0,1-2.36,11.29c-3.19,5.58-11.06,10.09-16.88,10.09a9.35,9.35,0,0,1-2.23-.25C35.55,212,32.57,211.84,28.92,213.88Z" transform="translate(-26.12 -164.49)"/><path class="cls-1" d="M62.77,180.49a8,8,0,1,0-8-8,8,8,0,0,0,8,8Z" transform="translate(-26.12 -164.49)"/><path class="cls-2" d="M55.13,172.71c0-.09,0-.18,0-.27h0a3.84,3.84,0,0,1,7.66-.19c0,.08,0,.17,0,.25s0,.17,0,.25a3.83,3.83,0,0,0,7.62.27,7.65,7.65,0,0,1-15.27-.3Z" transform="translate(-26.12 -164.49)"/><path class="cls-1" d="M58,172.58a.94.94,0,1,1,.94.93.93.93,0,0,1-.94-.93Z" transform="translate(-26.12 -164.49)"/><path class="cls-2" d="M65.46,172.58a1,1,0,1,1,1,1,1,1,0,0,1-1-1Z" transform="translate(-26.12 -164.49)"/><path class="cls-1" d="M84.59,217.19a8,8,0,1,0,11.14-2,8,8,0,0,0-11.14,2Z" transform="translate(-26.12 -164.49)"/><path class="cls-2" d="M95.34,215.39l.23.16h0a3.83,3.83,0,0,1-4.23,6.38l-.2-.15-.21-.13a3.83,3.83,0,0,0-4.59,6.09,7.66,7.66,0,0,1,9-12.35Z" transform="translate(-26.12 -164.49)"/><path class="cls-1" d="M93.79,217.84a.93.93,0,0,1,.23,1.3.93.93,0,1,1-1.53-1.07.93.93,0,0,1,1.3-.23Z" transform="translate(-26.12 -164.49)"/><path class="cls-2" d="M89.52,223.93a1,1,0,1,1-1.34.24,1,1,0,0,1,1.34-.24Z" transform="translate(-26.12 -164.49)"/><path class="cls-1" d="M40.83,217.5a8,8,0,1,0-2.35,11.06,8,8,0,0,0,2.35-11.06Z" transform="translate(-26.12 -164.49)"/><path class="cls-2" d="M38.47,228.14l-.23.15h0A3.84,3.84,0,0,1,33.9,222l.22-.13.2-.15a3.83,3.83,0,0,0-3.92-6.53,7.65,7.65,0,0,1,8.07,13Z" transform="translate(-26.12 -164.49)"/><path class="cls-1" d="M36.78,225.79a.94.94,0,1,1,.27-1.3.94.94,0,0,1-.27,1.3Z" transform="translate(-26.12 -164.49)"/><path class="cls-2" d="M32.73,219.55a1,1,0,0,1-1.33-.29,1,1,0,0,1,.28-1.33,1,1,0,0,1,1.33.28,1,1,0,0,1-.28,1.34Z" transform="translate(-26.12 -164.49)"/><path class="cls-3" d="M60.06,182.83" transform="translate(-26.12 -164.49)"/><path class="cls-1" d="M155.65,192.84c-1.39-1.72-4.71-3.17-7.19-3.3l-2.56,1.88c1.49-.15,4,1.56,4.92,3.85a14.29,14.29,0,0,1,1.08,5.33,9.88,9.88,0,0,1-1.39,4.9c-.87,1.55-2.49,2.6-3.83,3.63a12,12,0,0,0,7.54-3.32,9,9,0,0,0,3.36-6.87,9.65,9.65,0,0,0-1.93-6.1Zm-7.37,13.76a3.6,3.6,0,0,1-3.28-2.18,9.35,9.35,0,0,1-.89-4.28,12.58,12.58,0,0,1,1.24-5.87,27,27,0,0,1,3.11-4.73,9.73,9.73,0,0,0-7.13,3.45,10.75,10.75,0,0,0-2.9,7.76,8.61,8.61,0,0,0,2.17,5.87,8.24,8.24,0,0,0,6.32,2.51l2.91-2.48a6,6,0,0,1-1,0l-.6-.05Z" transform="translate(-26.12 -164.49)"/><path class="cls-1" d="M336,189.14l-.89,0c-3.27-.15-7.58,1.85-11.13,4.4l1.13,1.58a5.94,5.94,0,0,1,2.09-.27,22.38,22.38,0,0,1,4.32.5,15.81,15.81,0,0,1,2.4,8.5,13.41,13.41,0,0,1-1,5.56l2.63.93a35,35,0,0,0,2.35-12.78,17,17,0,0,0-1.89-8.38Zm-12.22,0-2.82,1a15.72,15.72,0,0,1,.81,5.68,36.15,36.15,0,0,1-2.24,12.39l5.91,2.13a32.86,32.86,0,0,0,.5-6.57,51.68,51.68,0,0,0-2.16-14.59Z" transform="translate(-26.12 -164.49)"/><path class="cls-1" d="M128.1,185.27a38.54,38.54,0,0,1-1.81-8.34L119,180.1a26.57,26.57,0,0,0,4.44,8.72,18,18,0,0,0,7.49,6.1l1.47-2.43q-2.55-2.2-4.25-7.22Zm9.27-7.61q-.51,8.42-6.45,16.45a40.93,40.93,0,0,1-13.4,11.74l4.75,6.64q7.77-4.63,12.71-15a53.76,53.76,0,0,0,5.13-19.27l-2.74-.58Z" transform="translate(-26.12 -164.49)"/><path class="cls-1" d="M219.21,185.27a38.55,38.55,0,0,1-1.82-8.34l-7.33,3.17a26.19,26.19,0,0,0,4.44,8.72,17.91,17.91,0,0,0,7.49,6.1l1.46-2.43c-1.69-1.47-3.11-3.88-4.24-7.22Zm9.27-7.61q-.51,8.42-6.45,16.45a41,41,0,0,1-13.4,11.74l4.75,6.64q7.76-4.63,12.7-15a53.78,53.78,0,0,0,5.14-19.27l-2.74-.58Z" transform="translate(-26.12 -164.49)"/><path class="cls-1" d="M219.85,185.27a38.54,38.54,0,0,1-1.81-8.34l-7.34,3.17a26.57,26.57,0,0,0,4.44,8.72,18,18,0,0,0,7.49,6.1l1.47-2.43c-1.7-1.47-3.11-3.88-4.25-7.22Zm9.27-7.61q-.5,8.42-6.45,16.45a41,41,0,0,1-13.39,11.74l4.75,6.64q7.75-4.63,12.7-15a53.56,53.56,0,0,0,5.13-19.27l-2.74-.58Z" transform="translate(-26.12 -164.49)"/><path class="cls-1" d="M285.89,185.27a38.54,38.54,0,0,1-1.81-8.34l-7.34,3.17a26.57,26.57,0,0,0,4.44,8.72,18,18,0,0,0,7.49,6.1l1.47-2.43q-2.55-2.2-4.25-7.22Zm9.27-7.61q-.51,8.42-6.45,16.45a40.93,40.93,0,0,1-13.4,11.74l4.75,6.64q7.77-4.63,12.71-15a54,54,0,0,0,5.13-19.27l-2.74-.58Z" transform="translate(-26.12 -164.49)"/><path class="cls-1" d="M362,185.21h-4.48a9.54,9.54,0,0,1,0,1q0,3.9-1.93,4.48a6.87,6.87,0,0,0,2.05.92c3,0,4.44-1.69,4.44-5.09a6,6,0,0,0-.12-1.28Zm-4,6a9.24,9.24,0,0,0-5.63-2.05l-6.18,2.13a13.53,13.53,0,0,1,6,1q3.43,1.52,3.44,4.44a8.25,8.25,0,0,1-.73,3.59c-.65,1.34-4.82,3.25-6.05,3.15v2.85l.65,0c2.19.16,7.34-2,9-4a9.19,9.19,0,0,0,2.35-6.14,6.32,6.32,0,0,0-2.86-5.06ZM345.41,198c0-1.55,2.33-5.66,3.13-7.18h-.31c-1.75-.06-3.73.87-5.92,4.12a8.05,8.05,0,0,0-1.61,4.87,7.11,7.11,0,0,0,.73,3.24c1.73,3.27,2.94,5.59,7.39,8.38l.1-7.89c-.95-.82-3.51-4.05-3.51-5.54Zm13.24,13.7c-.59-.28-1.2-.69-1.77-.94-1.54-.93-2.71-1.45-4.25-2.38a5.19,5.19,0,0,1-2.44-3.65s.52-.57.9-.57h-1.63c-.75,1.11-1.49-1.66-2.24-.56-1.1,1.7-1.66,2.82-1.66,3.36,0,1.52.57,2,2.95,4.27,2,1.21,4.17,2.69,6.13,3.88q3.19,2,3.2,3.67A4.42,4.42,0,0,1,356.1,222h.5a3.6,3.6,0,0,0,3-1.59,5.36,5.36,0,0,0,1.16-3.39q0-4-2.16-5.37Zm-3.42,9.55a7.08,7.08,0,0,1-3.44-2.37,13.14,13.14,0,0,1-3-5.09L345,220.14a18.15,18.15,0,0,0,9.11,2.93,6.36,6.36,0,0,0,4.65-1.79,9.81,9.81,0,0,1-1.92.21l-1.65-.26Z" transform="translate(-26.12 -164.49)"/><path class="cls-1" d="M315.22,205l-1.08-8.34c-.67-3.22-2.08-5-4-6l-5.05,2.12q3.39,1.51,4.4,6.07l1.23,7.41a4.85,4.85,0,0,0,5.1,3.59,7.08,7.08,0,0,0,2.43-.46q-2.36-.16-3-4.44Zm-9.77-15.41a9.48,9.48,0,0,0-3.93,1,11.32,11.32,0,0,0-3.84,2.69l2.7,3.09a34.1,34.1,0,0,1,9.87-5.64,8.33,8.33,0,0,0-3.93-1.16Zm5.14,15.33a7.46,7.46,0,0,1-4.37,2,3,3,0,0,1-2.12-.87,2.67,2.67,0,0,1-.89-2.11c0-1.05.8-1.91,2.32-2.58a9.37,9.37,0,0,1,3.67-.77,4.38,4.38,0,0,1,1.08.11l.07-2.39a11,11,0,0,0-3.7-.66,11.21,11.21,0,0,0-5.91,1.89q-3.39,2.08-3.47,4.79a4.58,4.58,0,0,0,2.12,3.78,6.58,6.58,0,0,0,4.13,1.63,19.27,19.27,0,0,0,4.21-.47,6.94,6.94,0,0,0,3.71-1.73l-.85-2.59Z" transform="translate(-26.12 -164.49)"/><path class="cls-1" d="M259.89,189.58l-.89,0c-3.26-.16-7.58,1.85-11.13,4.4l1.13,1.58a5.94,5.94,0,0,1,2.09-.27,22.3,22.3,0,0,1,4.32.5,15.8,15.8,0,0,1,2.4,8.49,13.38,13.38,0,0,1-1,5.56l2.63.93A35,35,0,0,0,261.78,198a17.05,17.05,0,0,0-1.89-8.38Zm-12.22,0-2.82,1a15.7,15.7,0,0,1,.81,5.67,36.25,36.25,0,0,1-2.24,12.4l5.91,2.12a32.82,32.82,0,0,0,.5-6.56,51.75,51.75,0,0,0-2.16-14.6Z" transform="translate(-26.12 -164.49)"/><path class="cls-1" d="M240.8,179.67a1.76,1.76,0,0,0-1.43-.66,2.47,2.47,0,0,0-2,1,3.31,3.31,0,0,0-.81,2.14,2.47,2.47,0,0,0,.54,1.57,1.74,1.74,0,0,0,1.43.67,2.55,2.55,0,0,0,2-1,3.26,3.26,0,0,0,.77-2.12,2.36,2.36,0,0,0-.54-1.55Zm-3.24,22.51a27.55,27.55,0,0,1-.93-7,22.23,22.23,0,0,1,.47-4.52l-2.63-.46a62,62,0,0,0-1.66,13.86c0,3.84.55,6.64,1.66,8.42l5.67-3.82a23.52,23.52,0,0,1-2.58-6.49Z" transform="translate(-26.12 -164.49)"/><path class="cls-1" d="M193.53,189.13q-3.71,0-8.73,3.21l.23,3.08a7,7,0,0,1,3.79-1.15,6.65,6.65,0,0,1,4.52,1.62l3.08-5.68a3.75,3.75,0,0,0-2.89-1.08Zm-8.46,6.56A15.88,15.88,0,0,1,186,190l-2.36-1a33.4,33.4,0,0,0-2,11.9,41.44,41.44,0,0,0,1,9.65l6.18-3.32a19.57,19.57,0,0,1-3.75-11.55Z" transform="translate(-26.12 -164.49)"/><path class="cls-1" d="M173.18,189a24.09,24.09,0,0,0-1.66,9.08,29.31,29.31,0,0,0,2.16,11.54l2.59-1.19a26.27,26.27,0,0,1-.58-5.49,22,22,0,0,1,2.7-11.35L173.18,189Zm-1.11,14.44-5,.47c-1.26-1.91-1.89-4.85-1.89-8.84a34.5,34.5,0,0,1,.23-4.17l-2.13-1.66a28.05,28.05,0,0,0-2.39,11.54,26.9,26.9,0,0,0,1.43,9.3q7.33-1.18,10.65-3.78l-.92-2.86Z" transform="translate(-26.12 -164.49)"/></svg>